<?xml version="1.0" encoding="UTF-8"?>
<svg xmlns="http://www.w3.org/2000/svg" xmlns:xlink="http://www.w3.org/1999/xlink" viewBox="0 0 100 100" width="100px" height="100px">
<g id="surface117901954">
<path style=" stroke:none;fill-rule:nonzero;fill:rgb(0%,76.862746%,94.117647%);fill-opacity:1;" d="M 10.332031 0.417969 C 4.871094 0.417969 0.417969 4.871094 0.417969 10.332031 L 0.417969 89.667969 C 0.417969 95.128906 4.871094 99.582031 10.332031 99.582031 L 89.667969 99.582031 C 95.128906 99.582031 99.582031 95.128906 99.582031 89.667969 L 99.582031 10.332031 C 99.582031 4.871094 95.128906 0.417969 89.667969 0.417969 Z M 10.332031 10.332031 L 89.667969 10.332031 L 89.667969 30.167969 L 72.082031 30.167969 C 66.636719 24.105469 58.753906 20.25 50 20.25 C 41.246094 20.25 33.363281 24.105469 27.921875 30.167969 L 10.332031 30.167969 Z M 74.792969 15.292969 L 74.792969 25.207031 L 84.707031 25.207031 L 84.707031 15.292969 Z M 50 30.167969 C 61.019531 30.167969 69.832031 38.980469 69.832031 50 C 69.832031 61.019531 61.019531 69.832031 50 69.832031 C 38.980469 69.832031 30.167969 61.019531 30.167969 50 C 30.167969 38.980469 38.980469 30.167969 50 30.167969 Z M 50 40.082031 C 49.011719 40.082031 48.023438 40.082031 47.035156 40.566406 C 48.507812 41.574219 50 43.066406 50 45.042969 C 50 48.023438 48.023438 50 45.042969 50 C 43.066406 50 41.574219 49.011719 40.566406 47.035156 C 40.082031 48.023438 40.082031 49.011719 40.082031 50 C 40.082031 55.460938 44.539062 59.917969 50 59.917969 C 55.460938 59.917969 59.917969 55.460938 59.917969 50 C 59.917969 44.539062 55.460938 40.082031 50 40.082031 Z M 50 40.082031 "/>
</g>
</svg>
