<?xml version="1.0" encoding="UTF-8"?>
<svg xmlns="http://www.w3.org/2000/svg" viewBox="0 0 160 160" width="160px" height="160px">
<g id="surface80358440">
<path style=" stroke:none;fill-rule:nonzero;fill:rgb(0%,76.862746%,94.117647%);fill-opacity:1;" d="M 108.820312 18 C 107.71875 17.941406 106.777344 18.796875 106.738281 19.898438 C 106.679688 21 107.539062 21.941406 108.640625 22 L 108.738281 22 C 109.796875 22 110.679688 21.15625 110.71875 20.078125 C 110.777344 18.976562 109.921875 18.039062 108.820312 18 Z M 53.761719 18.199219 C 52.660156 18.078125 51.660156 18.859375 51.539062 19.960938 C 51.398438 21.0625 52.199219 22.039062 53.300781 22.179688 L 53.519531 22.179688 C 54.519531 22.179688 55.378906 21.441406 55.5 20.421875 C 55.640625 19.320312 54.839844 18.320312 53.761719 18.199219 Z M 100.988281 19.484375 C 100.726562 19.476562 100.460938 19.519531 100.199219 19.621094 C 99.179688 20.019531 98.660156 21.179688 99.058594 22.21875 C 99.378906 23 100.140625 23.5 100.941406 23.5 C 101.179688 23.5 101.421875 23.460938 101.660156 23.359375 C 102.679688 22.960938 103.199219 21.800781 102.800781 20.78125 C 102.5 20 101.773438 19.511719 100.988281 19.484375 Z M 45.507812 19.714844 C 45.25 19.757812 44.996094 19.851562 44.761719 20 C 43.820312 20.578125 43.539062 21.820312 44.140625 22.761719 C 44.5 23.363281 45.160156 23.699219 45.820312 23.699219 C 46.179688 23.699219 46.558594 23.597656 46.878906 23.378906 C 47.820312 22.800781 48.097656 21.5625 47.519531 20.621094 C 47.085938 19.929688 46.28125 19.589844 45.507812 19.714844 Z M 61.210938 20.546875 C 60.433594 20.515625 59.679688 20.945312 59.320312 21.679688 C 58.839844 22.679688 59.28125 23.878906 60.28125 24.359375 C 60.542969 24.480469 60.839844 24.539062 61.121094 24.539062 C 61.882812 24.539062 62.601562 24.117188 62.941406 23.398438 C 63.402344 22.398438 62.980469 21.21875 61.980469 20.738281 C 61.730469 20.617188 61.46875 20.558594 61.210938 20.546875 Z M 115.910156 21.085938 C 115.398438 21.082031 114.890625 21.269531 114.5 21.660156 C 113.699219 22.441406 113.699219 23.699219 114.480469 24.480469 C 114.859375 24.878906 115.378906 25.078125 115.898438 25.078125 C 116.398438 25.078125 116.921875 24.898438 117.300781 24.5 C 118.082031 23.738281 118.101562 22.460938 117.320312 21.679688 C 116.929688 21.289062 116.421875 21.089844 115.910156 21.085938 Z M 93.507812 23.210938 C 93.25 23.253906 92.996094 23.351562 92.761719 23.5 C 91.839844 24.101562 91.558594 25.339844 92.160156 26.28125 C 92.539062 26.859375 93.199219 27.179688 93.859375 27.179688 C 94.21875 27.179688 94.601562 27.078125 94.941406 26.859375 C 95.863281 26.28125 96.117188 25.042969 95.539062 24.101562 C 95.089844 23.410156 94.28125 23.078125 93.507812 23.210938 Z M 68.03125 24.613281 C 67.144531 24.585938 66.347656 25.148438 66.070312 25.992188 C 65.792969 26.835938 66.109375 27.757812 66.839844 28.261719 L 66.84375 28.261719 L 66.847656 28.265625 C 70.136719 30.578125 73.585938 33.574219 77.074219 37.035156 C 73.050781 41.320312 69.046875 46.238281 65.164062 51.660156 C 57.492188 52.335938 50.351562 53.550781 43.894531 55.175781 C 42.671875 50.371094 41.851562 45.859375 41.558594 41.855469 C 41.496094 40.808594 40.636719 39.984375 39.585938 39.972656 C 39.019531 39.964844 38.480469 40.195312 38.09375 40.609375 C 37.710938 41.023438 37.519531 41.582031 37.566406 42.144531 C 37.878906 46.445312 38.738281 51.195312 40.011719 56.207031 C 36.066406 57.359375 32.421875 58.671875 29.175781 60.144531 C 28.996094 60.222656 28.832031 60.324219 28.683594 60.449219 C 28.5625 60.480469 28.4375 60.484375 28.320312 60.539062 C 27.320312 61 26.898438 62.199219 27.359375 63.199219 C 27.699219 63.917969 28.417969 64.339844 29.179688 64.339844 C 29.460938 64.339844 29.757812 64.28125 30.019531 64.160156 C 30.128906 64.105469 30.203125 64.019531 30.300781 63.949219 C 30.480469 63.921875 30.65625 63.867188 30.824219 63.789062 C 33.847656 62.417969 37.28125 61.183594 41.035156 60.085938 C 42.886719 66.40625 45.429688 73.121094 48.628906 80.011719 C 45.8125 86.082031 43.476562 92.023438 41.699219 97.671875 C 37.695312 96.53125 34.023438 95.230469 30.828125 93.785156 L 30.824219 93.785156 C 30.824219 93.785156 30.820312 93.78125 30.820312 93.78125 C 30.816406 93.78125 30.8125 93.777344 30.808594 93.777344 C 30.570312 93.667969 30.316406 93.609375 30.054688 93.597656 C 29.242188 93.570312 28.496094 94.03125 28.160156 94.769531 C 27.824219 95.511719 27.96875 96.378906 28.527344 96.96875 L 28.527344 96.972656 C 28.703125 97.15625 28.910156 97.308594 29.140625 97.414062 C 29.15625 97.421875 29.164062 97.433594 29.179688 97.441406 C 29.214844 97.457031 29.25 97.460938 29.285156 97.472656 C 32.65625 98.992188 36.457031 100.339844 40.574219 101.519531 C 40 103.582031 39.476562 105.613281 39.058594 107.578125 C 38.890625 108.285156 39.117188 109.027344 39.652344 109.515625 C 40.183594 110.007812 40.945312 110.171875 41.632812 109.941406 C 42.320312 109.714844 42.832031 109.128906 42.96875 108.417969 C 43.375 106.527344 43.882812 104.554688 44.441406 102.550781 C 50.214844 103.972656 56.558594 105.039062 63.304688 105.714844 C 67.761719 112.199219 72.417969 117.984375 77.089844 122.960938 C 75.078125 124.960938 73.078125 126.832031 71.117188 128.460938 C 70.558594 128.914062 70.285156 129.632812 70.40625 130.34375 C 70.523438 131.054688 71.015625 131.644531 71.691406 131.890625 C 72.367188 132.140625 73.121094 132.003906 73.671875 131.539062 C 75.71875 129.839844 77.792969 127.902344 79.871094 125.84375 C 82.816406 128.769531 85.75 131.367188 88.625 133.5625 C 88.640625 133.574219 88.644531 133.589844 88.660156 133.601562 L 88.660156 133.589844 C 89.226562 134.042969 89.996094 134.152344 90.664062 133.878906 C 91.335938 133.605469 91.808594 132.988281 91.894531 132.269531 C 91.980469 131.546875 91.671875 130.835938 91.085938 130.410156 C 88.347656 128.324219 85.523438 125.816406 82.667969 122.972656 C 87.34375 118 92.003906 112.222656 96.464844 105.738281 C 103.238281 105.066406 109.597656 103.988281 115.398438 102.566406 C 116.351562 105.980469 117.09375 109.25 117.601562 112.324219 C 117.78125 113.414062 118.808594 114.152344 119.898438 113.976562 C 120.992188 113.796875 121.730469 112.765625 121.550781 111.675781 C 121.019531 108.464844 120.257812 105.078125 119.28125 101.5625 C 122.675781 100.597656 125.867188 99.519531 128.765625 98.320312 C 129.4375 98.054688 129.910156 97.445312 130.007812 96.730469 C 130.105469 96.015625 129.808594 95.304688 129.234375 94.871094 C 128.660156 94.433594 127.898438 94.339844 127.234375 94.625 C 124.476562 95.765625 121.40625 96.800781 118.117188 97.730469 C 116.332031 92.046875 114.007812 86.085938 111.167969 79.980469 C 114.375 73.082031 116.90625 66.375 118.765625 60.046875 C 121.050781 60.710938 123.261719 61.410156 125.289062 62.179688 C 126.320312 62.578125 127.476562 62.066406 127.875 61.039062 C 128.277344 60.007812 127.765625 58.847656 126.734375 58.449219 C 126.730469 58.445312 126.722656 58.445312 126.71875 58.441406 C 126.714844 58.441406 126.714844 58.441406 126.710938 58.441406 C 124.5625 57.625 122.238281 56.886719 119.839844 56.191406 C 120.71875 52.738281 121.410156 49.414062 121.839844 46.28125 L 121.839844 46.273438 C 121.925781 45.703125 121.765625 45.125 121.394531 44.683594 C 121.023438 44.246094 120.480469 43.984375 119.90625 43.972656 C 118.886719 43.953125 118.015625 44.699219 117.882812 45.710938 C 117.882812 45.714844 117.878906 45.714844 117.878906 45.71875 L 117.878906 45.722656 C 117.878906 45.722656 117.878906 45.726562 117.878906 45.726562 C 117.472656 48.671875 116.820312 51.835938 115.980469 55.132812 C 109.507812 53.511719 102.316406 52.332031 94.632812 51.660156 C 90.738281 46.226562 86.722656 41.285156 82.6875 36.996094 C 85.578125 34.117188 88.4375 31.578125 91.207031 29.480469 C 91.898438 28.96875 92.1875 28.074219 91.921875 27.253906 C 91.65625 26.433594 90.894531 25.878906 90.035156 25.871094 C 89.585938 25.867188 89.148438 26.015625 88.792969 26.292969 C 85.863281 28.515625 82.867188 31.167969 79.863281 34.152344 C 76.246094 30.574219 72.648438 27.453125 69.152344 24.992188 C 68.824219 24.753906 68.433594 24.625 68.03125 24.613281 Z M 40.960938 25.914062 C 40.1875 25.941406 39.460938 26.417969 39.160156 27.199219 C 38.761719 28.21875 39.28125 29.382812 40.320312 29.78125 C 40.558594 29.882812 40.800781 29.921875 41.019531 29.921875 C 41.839844 29.921875 42.597656 29.421875 42.898438 28.621094 C 43.296875 27.601562 42.777344 26.4375 41.738281 26.039062 C 41.484375 25.945312 41.21875 25.90625 40.960938 25.914062 Z M 119.847656 28.117188 C 119.59375 28.078125 119.324219 28.089844 119.058594 28.160156 C 117.980469 28.441406 117.339844 29.519531 117.601562 30.578125 C 117.839844 31.5 118.660156 32.101562 119.539062 32.101562 C 119.699219 32.101562 119.878906 32.078125 120.039062 32.039062 C 121.097656 31.757812 121.761719 30.679688 121.480469 29.601562 C 121.269531 28.804688 120.613281 28.234375 119.847656 28.117188 Z M 39.621094 33.738281 C 38.519531 33.679688 37.558594 34.5 37.5 35.621094 C 37.421875 36.722656 38.257812 37.660156 39.378906 37.71875 C 39.417969 37.738281 39.460938 37.738281 39.5 37.738281 C 40.539062 37.738281 41.421875 36.917969 41.5 35.859375 C 41.558594 34.757812 40.722656 33.796875 39.621094 33.738281 Z M 120.421875 36.019531 C 119.320312 36.019531 118.441406 36.917969 118.441406 38.039062 C 118.441406 39.140625 119.339844 40.019531 120.441406 40.019531 C 121.542969 40.019531 122.441406 39.121094 122.441406 38.019531 C 122.441406 36.917969 121.542969 36.019531 120.421875 36.019531 Z M 79.886719 39.890625 C 83.066406 43.285156 86.253906 47.121094 89.390625 51.296875 C 86.3125 51.128906 83.195312 51.011719 80 51.011719 C 76.722656 51.011719 73.523438 51.136719 70.371094 51.3125 C 73.511719 47.121094 76.699219 43.296875 79.886719 39.890625 Z M 80 55.011719 C 84.265625 55.011719 88.433594 55.179688 92.46875 55.488281 C 95.25 59.453125 97.960938 63.695312 100.542969 68.167969 C 102.824219 72.121094 104.898438 76.066406 106.761719 79.960938 C 104.886719 83.890625 102.804688 87.867188 100.503906 91.855469 C 100.496094 91.871094 100.484375 91.890625 100.476562 91.90625 C 100.464844 91.925781 100.457031 91.941406 100.445312 91.960938 C 98.429688 95.445312 96.332031 98.765625 94.191406 101.949219 C 89.621094 102.347656 84.878906 102.566406 80 102.566406 C 75.054688 102.566406 70.238281 102.347656 65.609375 101.9375 C 63.460938 98.742188 61.351562 95.429688 59.332031 91.929688 C 57.015625 87.914062 54.953125 83.914062 53.070312 79.960938 C 54.945312 76.035156 57.015625 72.0625 59.316406 68.078125 C 59.320312 68.070312 59.324219 68.066406 59.328125 68.058594 C 59.335938 68.046875 59.339844 68.039062 59.347656 68.027344 C 61.894531 63.617188 64.570312 59.445312 67.308594 55.527344 C 71.421875 55.207031 75.648438 55.011719 80 55.011719 Z M 97.613281 55.980469 C 103.8125 56.660156 109.621094 57.679688 114.898438 58.992188 C 113.375 64.164062 111.367188 69.632812 108.886719 75.28125 C 107.367188 72.257812 105.765625 69.21875 104.007812 66.171875 C 101.949219 62.609375 99.800781 59.238281 97.613281 55.980469 Z M 62.144531 56.023438 C 60.003906 59.222656 57.898438 62.535156 55.882812 66.027344 C 55.875 66.042969 55.863281 66.058594 55.855469 66.074219 C 55.851562 66.078125 55.855469 66.082031 55.851562 66.085938 C 54.078125 69.15625 52.453125 72.214844 50.925781 75.257812 C 48.472656 69.648438 46.4375 64.1875 44.925781 59.050781 C 50.179688 57.734375 55.96875 56.714844 62.144531 56.023438 Z M 133.476562 61.589844 C 132.695312 61.519531 131.910156 61.90625 131.519531 62.640625 C 131 63.621094 131.378906 64.820312 132.359375 65.339844 C 132.660156 65.5 132.980469 65.578125 133.300781 65.578125 C 134 65.578125 134.699219 65.199219 135.058594 64.519531 C 135.578125 63.558594 135.199219 62.339844 134.238281 61.820312 C 133.992188 61.691406 133.738281 61.613281 133.476562 61.589844 Z M 22.585938 64.34375 C 22.082031 64.257812 21.539062 64.359375 21.078125 64.679688 C 20.179688 65.320312 19.960938 66.5625 20.601562 67.460938 C 21 68.019531 21.617188 68.320312 22.238281 68.320312 C 22.636719 68.320312 23.039062 68.203125 23.378906 67.941406 L 23.398438 67.960938 C 24.296875 67.320312 24.519531 66.058594 23.878906 65.160156 C 23.558594 64.710938 23.089844 64.429688 22.585938 64.34375 Z M 139.785156 66.003906 C 139.273438 66.042969 138.78125 66.277344 138.421875 66.699219 C 137.703125 67.539062 137.820312 68.800781 138.660156 69.519531 C 139.039062 69.839844 139.5 70 139.941406 70 C 140.519531 70 141.082031 69.761719 141.480469 69.28125 C 142.179688 68.441406 142.078125 67.179688 141.238281 66.480469 C 140.816406 66.121094 140.296875 65.964844 139.785156 66.003906 Z M 80 68.007812 C 73.371094 68.007812 68 73.378906 68 80.007812 C 68 86.636719 73.371094 92.007812 80 92.007812 C 86.628906 92.007812 92 86.636719 92 80.007812 C 92 73.378906 86.628906 68.007812 80 68.007812 Z M 16.140625 69.816406 C 15.632812 69.894531 15.160156 70.171875 14.839844 70.621094 C 14.199219 71.519531 14.402344 72.78125 15.300781 73.421875 C 15.640625 73.660156 16.0625 73.800781 16.460938 73.800781 C 17.082031 73.800781 17.699219 73.5 18.078125 72.960938 C 18.738281 72.0625 18.519531 70.820312 17.640625 70.179688 C 17.191406 69.851562 16.648438 69.738281 16.140625 69.816406 Z M 144.871094 72.167969 C 144.613281 72.179688 144.351562 72.238281 144.101562 72.359375 C 143.101562 72.820312 142.660156 74 143.121094 75 C 143.460938 75.738281 144.179688 76.160156 144.941406 76.160156 C 145.222656 76.160156 145.5 76.101562 145.78125 75.980469 C 146.78125 75.519531 147.222656 74.320312 146.761719 73.320312 C 146.402344 72.570312 145.648438 72.136719 144.871094 72.167969 Z M 13.921875 77.238281 C 12.824219 77.296875 11.964844 78.214844 12.019531 79.328125 C 12.0625 80.40625 12.941406 81.238281 14.019531 81.238281 L 14.101562 81.238281 C 15.203125 81.199219 16.058594 80.261719 16 79.160156 C 15.960938 78.039062 15.023438 77.199219 13.921875 77.238281 Z M 145.316406 79.953125 C 144.542969 80.027344 143.839844 80.558594 143.601562 81.339844 L 143.601562 81.359375 C 143.28125 82.398438 143.863281 83.519531 144.921875 83.859375 C 145.101562 83.917969 145.320312 83.941406 145.5 83.941406 C 146.359375 83.941406 147.140625 83.398438 147.421875 82.539062 C 147.742188 81.5 147.160156 80.378906 146.101562 80.039062 C 145.839844 79.953125 145.574219 79.929688 145.316406 79.953125 Z M 17.230469 84.515625 C 16.71875 84.460938 16.191406 84.601562 15.761719 84.941406 C 14.902344 85.640625 14.761719 86.902344 15.460938 87.761719 C 15.839844 88.242188 16.417969 88.5 17.019531 88.5 C 17.460938 88.5 17.902344 88.359375 18.261719 88.058594 C 19.121094 87.378906 19.257812 86.121094 18.578125 85.261719 C 18.226562 84.820312 17.742188 84.570312 17.230469 84.515625 Z M 50.910156 84.648438 C 52.453125 87.726562 54.074219 90.820312 55.867188 93.925781 C 55.867188 93.925781 55.867188 93.929688 55.867188 93.929688 C 57.347656 96.492188 58.871094 98.957031 60.421875 101.363281 C 55.144531 100.710938 50.15625 99.816406 45.574219 98.699219 C 47 94.195312 48.785156 89.480469 50.910156 84.648438 Z M 108.894531 84.648438 C 111.027344 89.496094 112.800781 94.214844 114.230469 98.730469 C 109.617188 99.847656 104.640625 100.761719 99.328125 101.40625 C 100.882812 98.996094 102.417969 96.53125 103.902344 93.964844 C 103.953125 93.886719 103.984375 93.824219 104.023438 93.75 C 105.78125 90.703125 107.375 87.667969 108.894531 84.648438 Z M 141.164062 86.53125 C 140.652344 86.519531 140.136719 86.699219 139.738281 87.078125 C 138.9375 87.839844 138.921875 89.121094 139.660156 89.921875 C 140.058594 90.320312 140.582031 90.519531 141.121094 90.519531 C 141.621094 90.519531 142.121094 90.339844 142.5 89.980469 C 143.300781 89.21875 143.320312 87.941406 142.558594 87.140625 C 142.179688 86.75 141.675781 86.542969 141.164062 86.53125 Z M 22.597656 89.8125 C 22.09375 89.910156 21.628906 90.199219 21.320312 90.660156 C 20.699219 91.582031 20.957031 92.820312 21.878906 93.441406 C 22.21875 93.660156 22.601562 93.78125 22.980469 93.78125 C 23.640625 93.78125 24.261719 93.457031 24.640625 92.878906 C 25.261719 91.957031 25.023438 90.722656 24.101562 90.121094 C 23.640625 89.8125 23.101562 89.714844 22.597656 89.8125 Z M 134.417969 91.246094 C 134.160156 91.277344 133.898438 91.359375 133.660156 91.5 C 132.71875 92.039062 132.382812 93.277344 132.941406 94.21875 C 133.300781 94.878906 133.980469 95.21875 134.660156 95.21875 C 135 95.21875 135.359375 95.140625 135.660156 94.960938 C 136.621094 94.402344 136.957031 93.179688 136.398438 92.238281 C 135.992188 91.519531 135.195312 91.152344 134.417969 91.246094 Z M 68.53125 106.144531 C 72.269531 106.398438 76.078125 106.566406 80 106.566406 C 83.839844 106.566406 87.578125 106.40625 91.246094 106.164062 C 87.523438 111.339844 83.699219 116.011719 79.886719 120.082031 C 76.078125 116.007812 72.253906 111.320312 68.53125 106.144531 Z M 39.941406 113.898438 C 38.839844 113.777344 37.839844 114.578125 37.71875 115.679688 C 37.617188 116.78125 38.398438 117.757812 39.5 117.878906 C 39.578125 117.878906 39.640625 117.898438 39.71875 117.898438 C 40.71875 117.898438 41.597656 117.140625 41.699219 116.101562 C 41.820312 115 41.042969 114.019531 39.941406 113.898438 Z M 120.238281 116.859375 C 119.136719 116.917969 118.300781 117.859375 118.359375 118.960938 C 118.417969 120.019531 119.300781 120.839844 120.359375 120.839844 L 120.480469 120.839844 C 121.582031 120.78125 122.417969 119.839844 122.359375 118.71875 C 122.300781 117.617188 121.339844 116.78125 120.238281 116.859375 Z M 39.339844 121.878906 C 38.21875 121.9375 37.382812 122.878906 37.441406 123.980469 C 37.480469 125.039062 38.382812 125.878906 39.441406 125.878906 L 39.539062 125.878906 C 40.640625 125.820312 41.480469 124.882812 41.421875 123.78125 C 41.382812 122.679688 40.441406 121.820312 39.339844 121.878906 Z M 120.421875 124.839844 C 119.320312 124.699219 118.300781 125.480469 118.160156 126.558594 C 118.019531 127.660156 118.777344 128.660156 119.878906 128.820312 C 119.957031 128.820312 120.0625 128.839844 120.140625 128.839844 C 121.121094 128.839844 122 128.101562 122.121094 127.101562 C 122.28125 126 121.5 125 120.421875 124.839844 Z M 40.964844 129.722656 C 40.707031 129.707031 40.441406 129.746094 40.179688 129.839844 C 39.140625 130.199219 38.601562 131.359375 38.960938 132.398438 C 39.261719 133.21875 40.019531 133.71875 40.839844 133.71875 C 41.058594 133.71875 41.300781 133.679688 41.519531 133.601562 C 42.558594 133.242188 43.097656 132.078125 42.71875 131.058594 C 42.449219 130.261719 41.742188 129.765625 40.964844 129.722656 Z M 67.964844 131.679688 C 67.460938 131.589844 66.921875 131.691406 66.460938 132 C 65.5625 132.640625 65.339844 133.882812 65.960938 134.78125 C 66.359375 135.339844 66.980469 135.640625 67.601562 135.640625 C 68 135.640625 68.402344 135.539062 68.761719 135.300781 C 69.660156 134.660156 69.882812 133.421875 69.261719 132.5 C 68.941406 132.050781 68.46875 131.769531 67.964844 131.679688 Z M 118.027344 132.441406 C 117.253906 132.339844 116.460938 132.703125 116.039062 133.421875 C 115.5 134.382812 115.820312 135.601562 116.78125 136.160156 C 117.101562 136.339844 117.441406 136.421875 117.78125 136.421875 C 118.480469 136.421875 119.140625 136.0625 119.519531 135.421875 C 120.058594 134.460938 119.742188 133.238281 118.78125 132.699219 C 118.542969 132.558594 118.285156 132.476562 118.027344 132.441406 Z M 96.746094 134.417969 C 95.972656 134.335938 95.1875 134.722656 94.78125 135.441406 C 94.261719 136.402344 94.597656 137.621094 95.558594 138.160156 C 95.878906 138.320312 96.199219 138.398438 96.539062 138.398438 C 97.238281 138.398438 97.921875 138.039062 98.28125 137.378906 C 98.820312 136.417969 98.480469 135.199219 97.5 134.660156 C 97.261719 134.523438 97.003906 134.445312 96.746094 134.417969 Z M 60.632812 135.660156 C 60.371094 135.667969 60.109375 135.726562 59.859375 135.839844 C 58.859375 136.300781 58.417969 137.5 58.878906 138.5 C 59.21875 139.238281 59.9375 139.660156 60.699219 139.660156 C 60.980469 139.660156 61.257812 139.601562 61.539062 139.480469 C 62.539062 139.019531 62.980469 137.820312 62.519531 136.820312 C 62.175781 136.070312 61.414062 135.636719 60.632812 135.660156 Z M 45.066406 136.148438 C 44.5625 136.242188 44.089844 136.53125 43.78125 136.980469 C 43.160156 137.878906 43.378906 139.140625 44.300781 139.761719 C 44.640625 140 45.042969 140.121094 45.421875 140.121094 C 46.0625 140.121094 46.679688 139.816406 47.078125 139.238281 C 47.699219 138.339844 47.457031 137.101562 46.558594 136.460938 C 46.109375 136.152344 45.570312 136.054688 45.066406 136.148438 Z M 111.972656 137.460938 C 111.714844 137.441406 111.445312 137.46875 111.179688 137.558594 C 110.140625 137.898438 109.558594 139.019531 109.898438 140.078125 C 110.179688 140.917969 110.960938 141.460938 111.800781 141.460938 C 112 141.460938 112.222656 141.417969 112.421875 141.359375 C 113.480469 141.019531 114.039062 139.878906 113.699219 138.839844 C 113.445312 138.042969 112.75 137.523438 111.972656 137.460938 Z M 103.601562 137.46875 C 102.828125 137.59375 102.175781 138.164062 101.980469 138.960938 C 101.699219 140.039062 102.363281 141.117188 103.421875 141.398438 L 103.421875 141.378906 C 103.582031 141.4375 103.761719 141.460938 103.921875 141.460938 C 104.800781 141.460938 105.621094 140.839844 105.859375 139.941406 C 106.121094 138.863281 105.476562 137.78125 104.398438 137.5 C 104.128906 137.433594 103.859375 137.425781 103.601562 137.46875 Z M 52.878906 137.898438 C 51.777344 138 50.957031 138.957031 51.058594 140.058594 C 51.160156 141.097656 52.039062 141.878906 53.058594 141.878906 L 53.238281 141.878906 C 54.339844 141.777344 55.160156 140.800781 55.039062 139.699219 C 54.960938 138.597656 53.980469 137.796875 52.878906 137.898438 Z M 52.878906 137.898438 "/>
</g>
</svg>
