<?xml version="1.0" encoding="UTF-8"?>
<svg xmlns="http://www.w3.org/2000/svg" viewBox="0 0 100 100" width="100px" height="100px">
<g id="surface107951852">
<path style=" stroke:none;fill-rule:nonzero;fill:rgb(0%,76.862746%,94.117647%);fill-opacity:1;" d="M 87.761719 0.441406 L 12.238281 0.441406 C 5.726562 0.441406 0.441406 5.726562 0.441406 12.238281 L 0.441406 87.761719 C 0.441406 94.273438 5.726562 99.558594 12.238281 99.558594 L 87.761719 99.558594 C 94.273438 99.558594 99.558594 94.273438 99.558594 87.761719 L 99.558594 12.238281 C 99.558594 5.726562 94.273438 0.441406 87.761719 0.441406 Z M 78.320312 35.839844 L 73.601562 35.839844 C 68.550781 35.839844 66.519531 37.019531 66.519531 40.558594 L 66.519531 47.640625 L 78.320312 47.640625 L 75.960938 59.441406 L 66.519531 59.441406 L 66.519531 94.839844 L 54.71875 94.839844 L 54.71875 59.441406 L 45.28125 59.441406 L 45.28125 47.640625 L 54.71875 47.640625 L 54.71875 40.558594 C 54.71875 31.121094 59.441406 24.039062 68.878906 24.039062 C 75.722656 24.039062 78.320312 26.398438 78.320312 26.398438 Z M 78.320312 35.839844 "/>
</g>
</svg>
