<?xml version="1.0" encoding="UTF-8"?>
<svg xmlns="http://www.w3.org/2000/svg" viewBox="0 0 100 100" width="100px" height="100px">
<g id="surface107799040">
<path style=" stroke:none;fill-rule:nonzero;fill:rgb(0%,76.862746%,94.117647%);fill-opacity:1;" d="M 24.039062 0.417969 C 11.035156 0.417969 0.441406 11.011719 0.441406 24.015625 L 0.441406 75.9375 C 0.441406 88.945312 11.035156 99.535156 24.039062 99.535156 L 75.960938 99.535156 C 88.964844 99.535156 99.558594 88.945312 99.558594 75.9375 L 99.558594 24.015625 C 99.558594 11.011719 88.964844 0.417969 75.960938 0.417969 Z M 33.492188 19.398438 C 34.976562 19.460938 36.335938 20.296875 37.160156 21.578125 C 38.09375 23.035156 39.542969 25.300781 41.429688 28.253906 C 43.152344 30.945312 43.273438 34.421875 41.734375 37.230469 L 38.277344 42.148438 C 37.34375 43.480469 37.15625 45.183594 37.785156 46.6875 C 38.761719 49.023438 40.65625 52.613281 44.023438 55.976562 C 47.386719 59.34375 50.976562 61.238281 53.3125 62.214844 C 54.816406 62.84375 56.519531 62.65625 57.851562 61.722656 L 62.769531 58.265625 C 65.578125 56.726562 69.054688 56.847656 71.746094 58.570312 C 74.699219 60.457031 76.964844 61.90625 78.421875 62.839844 C 79.703125 63.664062 80.539062 65.023438 80.601562 66.507812 C 80.964844 74.917969 74.449219 78.324219 72.554688 78.324219 C 71.242188 78.324219 55.464844 80.117188 37.675781 62.324219 C 19.882812 44.535156 21.675781 28.757812 21.675781 27.445312 C 21.675781 25.550781 25.082031 19.035156 33.492188 19.398438 Z M 33.492188 19.398438 "/>
</g>
</svg>
