<?xml version="1.0" encoding="UTF-8"?>
<svg xmlns="http://www.w3.org/2000/svg" viewBox="0 0 100 100" width="100px" height="100px">
<g id="surface107883718">
<path style=" stroke:none;fill-rule:nonzero;fill:rgb(0%,76.862746%,94.117647%);fill-opacity:1;" d="M 90.429688 0.5 L 9.570312 0.5 C 4.625 0.5 0.5 4.625 0.5 9.570312 L 0.5 90.429688 C 0.5 95.375 4.625 99.5 9.570312 99.5 L 90.429688 99.5 C 95.375 99.5 99.5 95.375 99.5 90.429688 L 99.5 9.570312 C 99.5 4.625 95.375 0.5 90.429688 0.5 Z M 29.375 83 L 12.875 83 L 12.875 37.625 L 29.375 37.625 Z M 21.125 32.257812 C 16.179688 32.257812 12.875 28.957031 12.875 24.832031 C 12.875 20.304688 16.179688 17 21.125 17 C 26.070312 17 29.375 20.304688 29.375 24.429688 C 29.375 28.957031 26.070312 32.257812 21.125 32.257812 Z M 87.125 83 L 70.625 83 L 70.625 58.25 C 70.625 51.644531 66.082031 50 64.855469 50 C 63.617188 50 58.25 50.820312 58.25 58.25 C 58.25 59.070312 58.25 83 58.25 83 L 41.75 83 L 41.75 37.625 L 58.25 37.625 L 58.25 44.230469 C 60.730469 40.507812 64.855469 37.625 72.6875 37.625 C 80.519531 37.625 87.125 43.8125 87.125 58.25 Z M 87.125 83 "/>
</g>
</svg>
